<svg width="127" height="19" viewBox="0 0 127 19" fill="none" xmlns="http://www.w3.org/2000/svg">
<path d="M10.4133 16.5867C9.28444 17.7156 7.94222 18.28 6.38667 18.28C5.28444 18.28 4.32889 18.0889 3.52 17.7067C2.72 17.3244 2.08444 16.7733 1.61333 16.0533C1.14222 15.3333 0.795556 14.5111 0.573333 13.5867C0.36 12.6622 0.253333 11.6089 0.253333 10.4267C0.253333 9.54667 0.297778 8.75556 0.386667 8.05333C0.484444 7.35111 0.64 6.68 0.853333 6.04C1.06667 5.4 1.36 4.84889 1.73333 4.38667C2.10667 3.91556 2.56444 3.50667 3.10667 3.16C3.64889 2.81333 4.30667 2.55556 5.08 2.38667C5.85333 2.20889 6.73333 2.12 7.72 2.12C8.16444 2.12 8.58667 2.14667 8.98667 2.2C9.39556 2.25333 9.74222 2.32 10.0267 2.4C10.3111 2.47111 10.5778 2.56444 10.8267 2.68C11.0844 2.78667 11.2844 2.88444 11.4267 2.97333C11.5778 3.05333 11.7156 3.14222 11.84 3.24C11.9644 3.33778 12.04 3.40444 12.0667 3.44C12.1022 3.47556 12.1289 3.50222 12.1467 3.52L11.9467 6.58667H9.52L8.76 4.81333C8.56444 4.70667 8.24889 4.65333 7.81333 4.65333C7.45778 4.65333 7.16444 4.68444 6.93333 4.74667C6.70222 4.80889 6.47111 4.94222 6.24 5.14667C6.01778 5.34222 5.84 5.63111 5.70667 6.01333C5.58222 6.38667 5.48 6.89778 5.4 7.54667C5.32 8.18667 5.28 8.96889 5.28 9.89333C5.28 11.8222 5.38222 13.2533 5.58667 14.1867C5.8 15.12 6.22222 15.5867 6.85333 15.5867C7.16444 15.5867 7.42667 15.56 7.64 15.5067C7.85333 15.4444 8.05333 15.3378 8.24 15.1867C8.42667 15.0267 8.56444 14.7956 8.65333 14.4933C8.74222 14.1822 8.78667 13.7867 8.78667 13.3067V11.9467L7.02667 11.5467V8.82667H12.96L12.9467 18H10.5733L10.4133 16.5867ZM20.4251 11.1067C20.4251 9.97778 20.3673 9.17778 20.2518 8.70667C20.1362 8.23556 19.9229 8 19.6118 8C19.3451 8 19.1273 8.04889 18.9584 8.14667C18.7895 8.23556 18.6651 8.38222 18.5851 8.58667C18.5051 8.78222 18.4518 8.98667 18.4251 9.2C18.4073 9.40444 18.3984 9.66667 18.3984 9.98667V11.1067H20.4251ZM19.3584 18.28C18.3629 18.28 17.4962 18.1289 16.7584 17.8267C16.0295 17.5244 15.4518 17.1022 15.0251 16.56C14.6073 16.0178 14.3007 15.4089 14.1051 14.7333C13.9095 14.0489 13.8118 13.2889 13.8118 12.4533C13.8118 10.4622 14.3184 8.95556 15.3318 7.93333C16.3451 6.91111 17.7629 6.4 19.5851 6.4C21.3362 6.4 22.5895 6.81333 23.3451 7.64C24.1007 8.45778 24.4784 9.77778 24.4784 11.6V13.08H18.3851V13.3333C18.3851 13.8578 18.4384 14.2889 18.5451 14.6267C18.6607 14.9644 18.8251 15.2133 19.0384 15.3733C19.2518 15.5333 19.4695 15.64 19.6918 15.6933C19.914 15.7467 20.1851 15.7733 20.5051 15.7733C20.8162 15.7733 21.1495 15.7333 21.5051 15.6533C21.8695 15.5733 22.234 15.4489 22.5984 15.28C22.9718 15.1111 23.2829 14.9111 23.5318 14.68L24.3184 16.0267C23.9895 16.56 23.5051 17.0089 22.8651 17.3733C22.234 17.7289 21.6251 17.9689 21.0384 18.0933C20.4518 18.2178 19.8918 18.28 19.3584 18.28ZM29.0428 18.28C27.8428 18.28 27.0028 17.92 26.5228 17.2C26.0517 16.48 25.8161 15.2622 25.8161 13.5467V9.01333H24.8961V7.16L26.4695 6.66667L27.8295 3.56H30.1761V6.66667H32.3628V9.01333H30.1361V13.9733C30.1361 14.6844 30.2384 15.1556 30.4428 15.3867C30.6473 15.6178 30.9628 15.7333 31.3895 15.7333C31.5761 15.7333 31.745 15.7111 31.8961 15.6667C32.0473 15.6222 32.1717 15.56 32.2695 15.48V17.2933C32.1361 17.4267 31.9628 17.56 31.7495 17.6933C31.5361 17.8178 31.1806 17.9467 30.6828 18.08C30.1939 18.2133 29.6473 18.28 29.0428 18.28ZM43.1582 18H38.7449V2.37333H40.5049C40.976 2.37333 41.6871 2.35556 42.6382 2.32C43.5893 2.27556 44.3716 2.25333 44.9849 2.25333C46.7093 2.25333 48.016 2.71111 48.9049 3.62667C49.7938 4.54222 50.2382 5.91556 50.2382 7.74667C50.2382 8.84889 50.0916 9.85333 49.7982 10.76C49.5138 11.6578 49.1271 12.3956 48.6382 12.9733C48.1493 13.5511 47.5938 13.9956 46.9716 14.3067C46.3493 14.6178 45.6916 14.7733 44.9982 14.7733C44.9093 14.7733 44.816 14.7733 44.7182 14.7733C44.6293 14.7733 44.5449 14.7733 44.4649 14.7733C44.3938 14.7644 44.3049 14.76 44.1982 14.76C44.1005 14.7511 44.0205 14.7467 43.9582 14.7467C43.9049 14.7378 43.8249 14.7333 43.7182 14.7333C43.6205 14.7244 43.5538 14.72 43.5182 14.72C43.4827 14.72 43.416 14.7156 43.3182 14.7067C43.2205 14.6978 43.1671 14.6933 43.1582 14.6933V18ZM45.8649 7.16C45.8649 6.50222 45.6871 5.96889 45.3316 5.56C44.976 5.15111 44.4649 4.94667 43.7982 4.94667H43.1582V11.88H43.6516C44.3538 11.88 44.896 11.6444 45.2782 11.1733C45.6693 10.7022 45.8649 10.0222 45.8649 9.13333V7.16ZM55.6982 18H51.3916V9.37333L50.5916 8.88V7.37333L53.4582 6.66667H54.5382L54.9249 9.84C55.2893 7.66222 56.4582 6.57333 58.4316 6.57333C58.6538 6.57333 58.8849 6.61333 59.1249 6.69333L58.6716 11.44C58.4849 11.2711 58.076 11.1867 57.4449 11.1867C56.5382 11.1867 55.956 11.4267 55.6982 11.9067V18ZM66.1673 11.1067C66.1673 9.97778 66.1095 9.17778 65.994 8.70667C65.8784 8.23556 65.6651 8 65.354 8C65.0873 8 64.8695 8.04889 64.7006 8.14667C64.5317 8.23556 64.4073 8.38222 64.3273 8.58667C64.2473 8.78222 64.194 8.98667 64.1673 9.2C64.1495 9.40444 64.1406 9.66667 64.1406 9.98667V11.1067H66.1673ZM65.1006 18.28C64.1051 18.28 63.2384 18.1289 62.5006 17.8267C61.7717 17.5244 61.194 17.1022 60.7673 16.56C60.3495 16.0178 60.0428 15.4089 59.8473 14.7333C59.6517 14.0489 59.554 13.2889 59.554 12.4533C59.554 10.4622 60.0606 8.95556 61.074 7.93333C62.0873 6.91111 63.5051 6.4 65.3273 6.4C67.0784 6.4 68.3317 6.81333 69.0873 7.64C69.8428 8.45778 70.2206 9.77778 70.2206 11.6V13.08H64.1273V13.3333C64.1273 13.8578 64.1806 14.2889 64.2873 14.6267C64.4028 14.9644 64.5673 15.2133 64.7806 15.3733C64.994 15.5333 65.2117 15.64 65.434 15.6933C65.6562 15.7467 65.9273 15.7733 66.2473 15.7733C66.5584 15.7733 66.8917 15.7333 67.2473 15.6533C67.6117 15.5733 67.9762 15.4489 68.3406 15.28C68.714 15.1111 69.0251 14.9111 69.274 14.68L70.0606 16.0267C69.7317 16.56 69.2473 17.0089 68.6073 17.3733C67.9762 17.7289 67.3673 17.9689 66.7806 18.0933C66.194 18.2178 65.634 18.28 65.1006 18.28ZM75.9717 18H71.665V9.37333L70.865 8.88V7.45333L73.7317 6.66667H75.9983V8.38667C76.0428 8.32444 76.105 8.24444 76.185 8.14667C76.2739 8.04 76.4339 7.87556 76.665 7.65333C76.8961 7.43111 77.1317 7.23556 77.3717 7.06667C77.6206 6.89778 77.9183 6.74667 78.265 6.61333C78.6206 6.47111 78.9717 6.4 79.3183 6.4C80.2072 6.4 80.8872 6.56889 81.3583 6.90667C81.8294 7.24444 82.1628 7.79556 82.3583 8.56C82.6606 8.03556 83.1228 7.54667 83.745 7.09333C84.3761 6.63111 85.0694 6.4 85.825 6.4C86.6606 6.4 87.3094 6.54667 87.7717 6.84C88.2428 7.12445 88.585 7.61333 88.7983 8.30667C89.0117 9 89.1183 9.97778 89.1183 11.24V18H84.785V10.8533C84.785 10.4622 84.6917 10.1556 84.505 9.93333C84.3183 9.71111 84.0339 9.6 83.6517 9.6C83.3939 9.6 83.0428 9.81333 82.5983 10.24C82.625 10.6667 82.6383 11.1289 82.6383 11.6267V18H78.2383V10.8533C78.265 10.0178 77.9094 9.6 77.1717 9.6C77.1183 9.6 77.065 9.60444 77.0117 9.61333C76.9672 9.62222 76.9228 9.63111 76.8783 9.64C76.8428 9.64889 76.7983 9.66667 76.745 9.69333C76.7006 9.71111 76.6606 9.72889 76.625 9.74667C76.5894 9.75556 76.5494 9.77778 76.505 9.81333C76.4606 9.84 76.425 9.86222 76.3983 9.88C76.3717 9.89778 76.3317 9.92889 76.2783 9.97333C76.2339 10.0089 76.1983 10.0356 76.1717 10.0533C76.1539 10.0711 76.1183 10.1022 76.065 10.1467C76.0206 10.1822 75.9894 10.2089 75.9717 10.2267V18ZM90.8056 18V9.37333L90.0056 8.88V7.45333L92.8723 6.66667H95.099V18H90.8056ZM92.739 5.44L90.5523 3.24V2.77333L92.739 0.586666H93.2456L95.5256 2.77333V3.24L93.2456 5.44H92.739ZM103.458 16.2267C103.405 16.3511 103.294 16.5156 103.125 16.72C102.965 16.9244 102.752 17.1511 102.485 17.4C102.218 17.64 101.89 17.8444 101.498 18.0133C101.107 18.1911 100.712 18.28 100.312 18.28C99.0584 18.28 98.1607 17.9067 97.6184 17.16C97.0851 16.4133 96.8184 15.1689 96.8184 13.4267V8.68L96.3518 8.2V6.66667H101.192V14.2667C101.183 14.6667 101.25 14.9644 101.392 15.16C101.534 15.3467 101.792 15.44 102.165 15.44C102.218 15.44 102.267 15.44 102.312 15.44C102.356 15.4311 102.401 15.4222 102.445 15.4133C102.49 15.3956 102.525 15.3822 102.552 15.3733C102.587 15.3644 102.627 15.3511 102.672 15.3333C102.716 15.3067 102.752 15.2844 102.778 15.2667C102.805 15.2489 102.841 15.2267 102.885 15.2C102.93 15.1644 102.961 15.1378 102.978 15.12C103.005 15.1022 103.041 15.0756 103.085 15.04C103.138 14.9956 103.178 14.9644 103.205 14.9467V8.68L102.485 8.2V6.66667H107.565V18H103.872L103.458 16.2267ZM113.706 18H109.399V9.37333L108.599 8.88V7.45333L111.466 6.66667H113.733V8.38667C113.777 8.32444 113.839 8.24444 113.919 8.14667C114.008 8.04 114.168 7.87556 114.399 7.65333C114.63 7.43111 114.866 7.23556 115.106 7.06667C115.355 6.89778 115.653 6.74667 115.999 6.61333C116.355 6.47111 116.706 6.4 117.053 6.4C117.942 6.4 118.622 6.56889 119.093 6.90667C119.564 7.24444 119.897 7.79556 120.093 8.56C120.395 8.03556 120.857 7.54667 121.479 7.09333C122.11 6.63111 122.804 6.4 123.559 6.4C124.395 6.4 125.044 6.54667 125.506 6.84C125.977 7.12445 126.319 7.61333 126.533 8.30667C126.746 9 126.853 9.97778 126.853 11.24V18H122.519V10.8533C122.519 10.4622 122.426 10.1556 122.239 9.93333C122.053 9.71111 121.768 9.6 121.386 9.6C121.128 9.6 120.777 9.81333 120.333 10.24C120.359 10.6667 120.373 11.1289 120.373 11.6267V18H115.973V10.8533C115.999 10.0178 115.644 9.6 114.906 9.6C114.853 9.6 114.799 9.60444 114.746 9.61333C114.702 9.62222 114.657 9.63111 114.613 9.64C114.577 9.64889 114.533 9.66667 114.479 9.69333C114.435 9.71111 114.395 9.72889 114.359 9.74667C114.324 9.75556 114.284 9.77778 114.239 9.81333C114.195 9.84 114.159 9.86222 114.133 9.88C114.106 9.89778 114.066 9.92889 114.013 9.97333C113.968 10.0089 113.933 10.0356 113.906 10.0533C113.888 10.0711 113.853 10.1022 113.799 10.1467C113.755 10.1822 113.724 10.2089 113.706 10.2267V18Z" fill="white"/>
</svg>
